# xmcd CD database file
#
# Track frame offsets:
#	182
#	17282
#	32002
#	57482
#	64157
#	76870
#	86307
#	100870
#	114707
#	127007
#	134680
#	147107
#	157112
#	176317
#	190082
#	201857
#
# Disc length: 2816 seconds
#
# Revision: 0
# Processed by: cddbd v1.5.1PL0 Copyright (c) Steve Scherf et al.
# Submitted via: CDex 1.51
#
DISCID=d60afe10
DTITLE=Various Artist - The Best Of Rarest Jazz Performances
DYEAR=1995
DGENRE=Jazz
TTITLE0=01-Dick Hyman - Fine And Dandy
TTITLE1=02-Don Bays - St German Des Pres
TTITLE2=03-Benny Goodman - Undecited
TTITLE3=04-Lionel Hampton - Hamp's Boogie Woogie
TTITLE4=05-Lionel Hampton - Real Gone and Crazy
TTITLE5=06-George Shearing - Cuban Fantasy
TTITLE6=07-Fats Navarro - Bouncing With Bud
TTITLE7=08-Lee Kontiz - Memories Of You
TTITLE8=09-Teddy Wilson - China Boy
TTITLE9=10-Earl Hines - Song Of The Island
TTITLE10=11-Cootie Williams - Roll'em
TTITLE11=12-James Johnson - Caprice Rag
TTITLE12=13-Louis Armstrong and Bing Crosby- New You Have Jazz
TTITLE13=14-Bob Crosby And His Orchestra - Jimtown Blues
TTITLE14=15-Benny Carter With Paulus Lavalle Band - Stardust
TTITLE15=16-Bobby Hackett - Body And Soul
EXTD=YEAR: 1995
EXTT0=
EXTT1=
EXTT2=
EXTT3=
EXTT4=
EXTT5=
EXTT6=
EXTT7=
EXTT8=
EXTT9=
EXTT10=
EXTT11=
EXTT12=
EXTT13=
EXTT14=
EXTT15=
PLAYORDER=
